<?xml version="1.0" encoding="UTF-8"?>
<svg xmlns="http://www.w3.org/2000/svg" xmlns:xlink="http://www.w3.org/1999/xlink" width="200pt" height="100pt" viewBox="0 0 200 100" version="1.1">
<defs>
<linearGradient id="linear0" gradientUnits="userSpaceOnUse" x1="725.3917" y1="117.6529" x2="725.3917" y2="352.1607" gradientTransform="matrix(0.218818,0,0,0.170358,0,0.0255537)">
<stop offset="0.142" style="stop-color:rgb(69.803922%,82.352941%,20.784314%);stop-opacity:1;"/>
<stop offset="0.625" style="stop-color:rgb(22.352941%,70.980392%,29.019608%);stop-opacity:1;"/>
</linearGradient>
</defs>
<g id="surface1">
<path style=" stroke:none;fill-rule:nonzero;fill:url(#linear0);" d="M 159.824219 20.078125 L 136.214844 43.6875 L 136.214844 52.683594 L 160.503906 52.683594 L 160.503906 60.027344 L 174.203125 60.027344 L 174.203125 52.683594 L 181.246094 52.683594 L 181.246094 43.6875 L 174.203125 43.6875 L 174.203125 20.078125 Z M 159.824219 20.078125 "/>
<path style=" stroke:none;fill-rule:nonzero;fill:rgb(0%,35.686275%,66.666667%);fill-opacity:1;" d="M 69.167969 20.058594 L 83.085938 20.058594 L 83.085938 60.027344 L 69.167969 60.027344 Z M 69.167969 20.058594 "/>
<path style=" stroke:none;fill-rule:nonzero;fill:rgb(0%,35.686275%,66.666667%);fill-opacity:1;" d="M 119.5625 35.339844 L 110.941406 43.6875 L 122.296875 43.6875 L 122.296875 48.96875 C 119.890625 50.265625 117.222656 50.878906 114.15625 50.878906 C 110.242188 50.878906 107.046875 49.871094 104.375 47.792969 C 101.707031 45.714844 100.414062 43.210938 100.414062 40.128906 C 100.414062 37.09375 101.683594 34.589844 104.265625 32.480469 C 106.828125 30.382812 109.933594 29.378906 113.742188 29.378906 C 117.023438 29.378906 119.757812 30.160156 122.386719 31.832031 L 122.867188 32.136719 L 131.203125 23.996094 L 130.722656 23.707031 C 126.015625 20.792969 120.328125 19.328125 113.808594 19.328125 C 105.929688 19.328125 99.34375 21.335938 94.222656 25.308594 C 89.082031 29.277344 86.5 34.265625 86.5 40.128906 C 86.5 45.988281 89.101562 50.980469 94.265625 54.949219 C 99.410156 58.917969 106.039062 60.929688 113.960938 60.929688 C 118.488281 60.929688 122.691406 60.230469 126.457031 58.832031 C 130.21875 57.4375 133.347656 55.527344 135.710938 53.175781 L 136.234375 52.667969 L 136.234375 35.339844 Z M 119.5625 35.339844 "/>
<path style=" stroke:none;fill-rule:nonzero;fill:rgb(0%,35.686275%,66.666667%);fill-opacity:1;" d="M 63.214844 41.304688 C 62.167969 40.398438 60.898438 39.632812 59.429688 39.054688 C 59.320312 39.003906 59.210938 38.96875 59.101562 38.917969 C 60.066406 38.390625 60.917969 37.792969 61.664062 37.09375 C 63.433594 35.460938 64.3125 33.398438 64.3125 30.960938 C 64.3125 28.664062 63.699219 26.753906 62.472656 25.308594 C 61.292969 23.875 59.714844 22.75 57.789062 21.96875 C 55.953125 21.199219 53.875 20.707031 51.621094 20.453125 C 49.476562 20.214844 47.308594 20.09375 45.1875 20.09375 L 25.753906 20.09375 L 25.753906 60.128906 L 46.9375 60.128906 C 49.148438 60.128906 51.402344 59.941406 53.609375 59.566406 C 55.90625 59.191406 58.03125 58.542969 59.890625 57.65625 C 61.816406 56.738281 63.414062 55.511719 64.617188 54.027344 C 65.863281 52.496094 66.5 50.585938 66.5 48.355469 C 66.5 47.011719 66.214844 45.714844 65.644531 44.507812 C 65.097656 43.3125 64.265625 42.222656 63.214844 41.304688 M 48.183594 50.707031 L 39.804688 50.707031 L 39.804688 43.839844 L 48.183594 43.839844 C 50.613281 43.839844 52.582031 45.375 52.582031 47.265625 C 52.605469 49.171875 50.613281 50.707031 48.183594 50.707031 M 50.589844 32.394531 C 50.589844 34.0625 48.863281 35.410156 46.71875 35.410156 L 39.824219 35.410156 L 39.824219 29.378906 L 46.71875 29.378906 C 48.863281 29.378906 50.589844 30.722656 50.589844 32.394531 "/>
<path style=" stroke:none;fill-rule:evenodd;fill:rgb(100%,100%,100%);fill-opacity:1;" d="M 165.578125 46.5 C 165.734375 46.90625 165.273438 47.09375 165.425781 47.453125 C 165.230469 47.65625 164.792969 47.503906 164.640625 47.792969 C 163.765625 47.929688 164.203125 47.164062 163.589844 46.976562 C 163.652344 46.703125 163.214844 46.3125 163.71875 46.191406 C 164.179688 46.378906 164.574219 46.242188 164.96875 46.175781 C 165.25 46.003906 165.644531 46.242188 165.578125 46.5 M 163.433594 32.820312 C 163.390625 33.195312 163.699219 33.464844 163.742188 33.808594 C 164.046875 33.671875 164.375 33.875 164.617188 34.046875 C 164.703125 34.265625 164.421875 34.574219 164.617188 34.828125 C 164.945312 34.898438 165.097656 35.101562 165.164062 35.324219 L 164.902344 35.785156 C 166.300781 36.089844 166.410156 37.367188 167.351562 38.066406 C 167.550781 38.320312 167.855469 38.425781 167.941406 38.730469 C 168.226562 38.867188 168.621094 39.070312 168.753906 39.308594 C 168.46875 39.769531 168.6875 40.230469 168.664062 40.722656 C 168.664062 41.132812 168.226562 41.472656 168.425781 41.882812 C 168.097656 42.546875 167.132812 42.835938 167.089844 43.535156 C 166.871094 43.6875 166.71875 43.894531 166.675781 44.132812 C 166.148438 44.609375 165.535156 44.898438 164.835938 45.171875 C 164.835938 45.324219 164.75 45.511719 164.550781 45.5625 C 164.203125 45.628906 164.15625 45.527344 163.984375 45.375 L 163.785156 45.085938 C 163.433594 45.238281 162.910156 45.441406 162.515625 45.222656 C 162.277344 45.289062 161.96875 45.1875 161.730469 45.085938 C 161.027344 44.796875 161.488281 44.214844 161.117188 43.824219 C 160.960938 43.910156 160.742188 43.875 160.589844 43.910156 C 160.570312 43.789062 160.765625 43.707031 160.589844 43.601562 C 160.414062 43.707031 160.132812 43.789062 160.085938 43.996094 C 159.847656 43.910156 159.648438 43.722656 159.738281 43.5 C 160.023438 43.347656 160.042969 43.074219 160.261719 42.871094 C 160.195312 42.800781 160 42.800781 159.914062 42.871094 C 159.695312 43.09375 159.367188 43.296875 159.496094 43.601562 C 159.257812 43.738281 158.90625 43.671875 158.6875 43.550781 C 158.972656 43.125 157.855469 42.988281 158.378906 42.511719 C 157.503906 42.511719 156.738281 41.898438 155.90625 42.273438 C 155.359375 43.210938 153.347656 42.273438 153.414062 43.585938 C 153.152344 43.789062 152.777344 43.773438 152.472656 43.859375 C 152.320312 43.585938 151.816406 43.789062 151.53125 43.859375 C 151.179688 44.0625 151.09375 44.421875 150.632812 44.539062 C 150 44.609375 149.386719 44.285156 148.773438 44.351562 C 148.773438 44.199219 148.511719 44.046875 148.707031 43.875 C 149.210938 43.757812 148.882812 43.382812 148.972656 43.125 C 148.730469 42.632812 148.007812 42.359375 147.855469 41.8125 C 147.308594 41.492188 147.199219 40.929688 146.695312 40.585938 C 146.585938 40.332031 146.957031 40.433594 147.046875 40.332031 C 146.324219 40.042969 147.066406 39.292969 146.457031 38.867188 C 146.390625 38.714844 146.519531 38.527344 146.738281 38.578125 C 147.265625 38.902344 147.132812 38.1875 147.550781 38.101562 C 148.554688 37.84375 149.410156 37.332031 150.4375 37.078125 C 150.722656 36.71875 151.050781 36.398438 150.808594 35.921875 C 151.050781 35.664062 151.445312 35.492188 151.574219 35.222656 C 152.277344 35.273438 152.363281 34.589844 152.714844 34.25 C 152.976562 34.097656 153.324219 34.113281 153.632812 34.027344 C 154.070312 34.132812 154.398438 34.847656 154.945312 34.421875 C 154.792969 34.285156 154.878906 34.0625 155.03125 33.945312 C 155.734375 33.757812 154.859375 33.363281 155.535156 33.175781 C 155.777344 32.972656 156.148438 33.246094 156.390625 33.039062 C 156.347656 32.851562 156.148438 32.769531 156.257812 32.582031 C 157.15625 32.800781 158.226562 32.699219 159.234375 32.769531 C 159.410156 32.921875 159.757812 32.886719 159.78125 33.125 C 159.496094 33.484375 158.863281 33.824219 158.796875 34.285156 C 159.605469 34.421875 160.195312 35.015625 161.070312 35.050781 C 161.070312 35.1875 161.050781 35.339844 161.246094 35.441406 C 161.683594 35.597656 161.488281 35.136719 161.839844 35.222656 C 162.011719 34.777344 162.539062 34.320312 162.1875 33.773438 C 162.1875 33.550781 162.625 33.28125 162.210938 33.074219 C 162.40625 32.851562 162.296875 32.480469 162.714844 32.359375 C 163.171875 32.171875 163.195312 32.648438 163.433594 32.820312 "/>
<path style=" stroke:none;fill-rule:nonzero;fill:rgb(0%,35.686275%,66.666667%);fill-opacity:1;" d="M 25.777344 70.109375 L 27.199219 70.109375 L 27.199219 74.472656 L 34.507812 74.472656 L 34.507812 70.109375 L 35.929688 70.109375 L 35.929688 79.941406 L 34.507812 79.941406 L 34.507812 75.511719 L 27.199219 75.511719 L 27.199219 79.941406 L 25.777344 79.941406 Z M 25.777344 70.109375 "/>
<path style=" stroke:none;fill-rule:nonzero;fill:rgb(0%,35.686275%,66.666667%);fill-opacity:1;" d="M 38.949219 75.050781 L 38.949219 75.015625 C 38.949219 72.308594 41.574219 69.921875 45.40625 69.921875 C 49.257812 69.921875 51.839844 72.273438 51.839844 74.984375 L 51.839844 75.015625 C 51.839844 77.726562 49.210938 80.109375 45.382812 80.109375 C 41.53125 80.109375 38.949219 77.761719 38.949219 75.050781 M 50.351562 75.050781 L 50.351562 75.015625 C 50.351562 72.785156 48.25 70.960938 45.359375 70.960938 C 42.472656 70.960938 40.414062 72.75 40.414062 75 L 40.414062 75.035156 C 40.414062 77.265625 42.515625 79.089844 45.40625 79.089844 C 48.292969 79.089844 50.351562 77.28125 50.351562 75.050781 "/>
<path style=" stroke:none;fill-rule:nonzero;fill:rgb(0%,35.686275%,66.666667%);fill-opacity:1;" d="M 54.835938 70.109375 L 56.257812 70.109375 L 56.257812 78.917969 L 63.371094 78.917969 L 63.371094 79.941406 L 54.835938 79.941406 Z M 54.835938 70.109375 "/>
<path style=" stroke:none;fill-rule:nonzero;fill:rgb(0%,35.686275%,66.666667%);fill-opacity:1;" d="M 66.148438 70.109375 L 67.570312 70.109375 L 67.570312 79.941406 L 66.148438 79.941406 Z M 66.148438 70.109375 "/>
<path style=" stroke:none;fill-rule:nonzero;fill:rgb(0%,35.686275%,66.666667%);fill-opacity:1;" d="M 71.269531 70.109375 L 75.644531 70.109375 C 79.628906 70.109375 82.363281 72.238281 82.363281 75 L 82.363281 75.035156 C 82.363281 77.792969 79.628906 79.957031 75.644531 79.957031 L 71.269531 79.957031 Z M 75.644531 78.917969 C 78.839844 78.917969 80.875 77.230469 80.875 75.050781 L 80.875 75.015625 C 80.875 72.835938 78.839844 71.132812 75.644531 71.132812 L 72.691406 71.132812 L 72.691406 78.917969 Z M 75.644531 78.917969 "/>
<path style=" stroke:none;fill-rule:nonzero;fill:rgb(0%,35.686275%,66.666667%);fill-opacity:1;" d="M 89.210938 70.042969 L 90.546875 70.042969 L 96.300781 79.941406 L 94.769531 79.941406 L 93.28125 77.351562 L 86.433594 77.351562 L 84.945312 79.941406 L 83.480469 79.941406 Z M 92.734375 76.347656 L 89.867188 71.335938 L 86.980469 76.347656 Z M 92.734375 76.347656 "/>
<path style=" stroke:none;fill-rule:nonzero;fill:rgb(0%,35.686275%,66.666667%);fill-opacity:1;" d="M 100.765625 76.054688 L 95.515625 70.109375 L 97.242188 70.109375 L 101.511719 75.015625 L 105.796875 70.109375 L 107.460938 70.109375 L 102.210938 76.039062 L 102.210938 79.941406 L 100.765625 79.941406 Z M 100.765625 76.054688 "/>
<path style=" stroke:none;fill-rule:nonzero;fill:rgb(0%,35.686275%,66.666667%);fill-opacity:1;" d="M 115.164062 70.109375 L 119.890625 70.109375 C 122.734375 70.109375 124.617188 71.285156 124.617188 73.226562 L 124.617188 73.261719 C 124.617188 75.375 122.339844 76.480469 119.648438 76.480469 L 116.585938 76.480469 L 116.585938 79.957031 L 115.164062 79.957031 Z M 119.695312 75.460938 C 121.792969 75.460938 123.152344 74.589844 123.152344 73.296875 L 123.152344 73.261719 C 123.152344 71.867188 121.792969 71.132812 119.757812 71.132812 L 116.566406 71.132812 L 116.566406 75.460938 Z M 119.695312 75.460938 "/>
<path style=" stroke:none;fill-rule:nonzero;fill:rgb(0%,35.686275%,66.666667%);fill-opacity:1;" d="M 130.613281 70.042969 L 131.949219 70.042969 L 137.703125 79.941406 L 136.171875 79.941406 L 134.683594 77.351562 L 127.8125 77.351562 L 126.300781 79.941406 L 124.835938 79.941406 Z M 134.136719 76.347656 L 131.269531 71.335938 L 128.378906 76.347656 Z M 134.136719 76.347656 "/>
<path style=" stroke:none;fill-rule:nonzero;fill:rgb(0%,35.686275%,66.666667%);fill-opacity:1;" d="M 140.195312 70.109375 L 145.625 70.109375 C 147.175781 70.109375 148.425781 70.46875 149.210938 71.097656 C 149.824219 71.574219 150.195312 72.257812 150.195312 73.039062 L 150.195312 73.074219 C 150.195312 74.710938 148.753906 75.664062 146.761719 75.9375 L 150.632812 79.957031 L 148.882812 79.957031 L 145.207031 76.140625 L 141.597656 76.140625 L 141.597656 79.957031 L 140.175781 79.957031 L 140.175781 70.109375 Z M 145.515625 75.121094 C 147.417969 75.121094 148.753906 74.351562 148.753906 73.09375 L 148.753906 73.058594 C 148.753906 71.847656 147.570312 71.117188 145.515625 71.117188 L 141.621094 71.117188 L 141.621094 75.101562 L 145.515625 75.101562 Z M 145.515625 75.121094 "/>
<path style=" stroke:none;fill-rule:nonzero;fill:rgb(0%,35.686275%,66.666667%);fill-opacity:1;" d="M 153.261719 70.109375 L 154.683594 70.109375 L 154.683594 75.988281 L 161.925781 70.109375 L 163.785156 70.109375 L 158.359375 74.402344 L 164.003906 79.941406 L 162.230469 79.941406 L 157.375 75.1875 L 154.683594 77.300781 L 154.683594 79.941406 L 153.261719 79.941406 Z M 153.261719 70.109375 "/>
<path style=" stroke:none;fill-rule:nonzero;fill:rgb(0%,35.686275%,66.666667%);fill-opacity:1;" d="M 165.230469 78.507812 L 166.105469 77.691406 C 167.417969 78.613281 168.6875 79.089844 170.4375 79.089844 C 172.144531 79.089844 173.261719 78.390625 173.261719 77.417969 L 173.261719 77.386719 C 173.261719 76.464844 172.625 75.953125 169.976562 75.511719 C 167.066406 75.015625 165.734375 74.285156 165.734375 72.667969 L 165.734375 72.632812 C 165.734375 71.082031 167.484375 69.957031 169.890625 69.957031 C 171.730469 69.957031 173.042969 70.367188 174.332031 71.167969 L 173.5 72.019531 C 172.320312 71.269531 171.160156 70.945312 169.847656 70.945312 C 168.207031 70.945312 167.15625 71.644531 167.15625 72.53125 L 167.15625 72.5625 C 167.15625 73.484375 167.8125 74.011719 170.589844 74.472656 C 173.414062 74.949219 174.703125 75.75 174.703125 77.25 L 174.703125 77.28125 C 174.703125 78.96875 172.886719 80.058594 170.394531 80.058594 C 168.378906 80.078125 166.738281 79.566406 165.230469 78.507812 "/>
</g>
</svg>
