<?xml version="1.0" encoding="utf-8"?>
<!-- Generator: Adobe Illustrator 24.3.0, SVG Export Plug-In . SVG Version: 6.00 Build 0)  -->
<svg version="1.1" id="Layer_1" xmlns="http://www.w3.org/2000/svg" xmlns:xlink="http://www.w3.org/1999/xlink" x="0px" y="0px"
	 viewBox="0 0 48 50" style="enable-background:new 0 0 48 50;" xml:space="preserve">
<style type="text/css">
	.st0{opacity:0.5;fill:none;stroke:#0FC645;stroke-width:3;}
	.st1{fill:none;stroke:#0FC645;stroke-width:3;stroke-linecap:round;stroke-linejoin:round;}
</style>
<g transform="translate(2 2)">
	<path class="st0" d="M4.6,33h0.7c1.2,0,1.9,0.2,2.6,0.5c0.7,0.3,1.2,0.9,1.5,1.5c0.3,0.7,0.5,1.4,0.5,2.6v3.7
		c0,1.2-0.2,1.9-0.5,2.6c-0.3,0.7-0.9,1.2-1.5,1.5C7.3,45.8,6.6,46,5.4,46H4.6c-1.2,0-1.9-0.2-2.6-0.5c-0.7-0.3-1.2-0.9-1.5-1.5
		C0.2,43.3,0,42.6,0,41.4v-3.7c0-1.2,0.2-1.9,0.5-2.6c0.3-0.7,0.9-1.2,1.5-1.5C2.7,33.2,3.4,33,4.6,33z M21.6,26h0.7
		c1.2,0,1.9,0.2,2.6,0.5s1.2,0.9,1.5,1.5s0.5,1.4,0.5,2.6v10.7c0,1.2-0.2,1.9-0.5,2.6c-0.3,0.7-0.9,1.2-1.5,1.5
		c-0.7,0.3-1.4,0.5-2.6,0.5h-0.7c-1.2,0-1.9-0.2-2.6-0.5c-0.7-0.3-1.2-0.9-1.5-1.5c-0.3-0.7-0.5-1.4-0.5-2.6V30.6
		c0-1.2,0.2-1.9,0.5-2.6s0.9-1.2,1.5-1.5S20.4,26,21.6,26z M38.6,14h0.7c1.2,0,1.9,0.2,2.6,0.5c0.7,0.3,1.2,0.9,1.5,1.5
		c0.3,0.7,0.5,1.4,0.5,2.6v22.7c0,1.2-0.2,1.9-0.5,2.6c-0.3,0.7-0.9,1.2-1.5,1.5c-0.7,0.3-1.4,0.5-2.6,0.5h-0.7
		c-1.2,0-1.9-0.2-2.6-0.5c-0.7-0.3-1.2-0.9-1.5-1.5c-0.3-0.7-0.5-1.4-0.5-2.6V18.6c0-1.2,0.2-1.9,0.5-2.6c0.3-0.7,0.9-1.2,1.5-1.5
		C36.7,14.2,37.4,14,38.6,14z"/>
	<polyline class="st1" points="5,26 13.5,15 22,18.4 36.2,1.2 	"/>
	<polyline class="st1" points="30,0 37.3,0 38.4,6.8 	"/>
</g>
</svg>
