<?xml version="1.0" encoding="utf-8"?>
<!-- Generator: Adobe Illustrator 24.3.0, SVG Export Plug-In . SVG Version: 6.00 Build 0)  -->
<svg version="1.1" id="Layer_1" xmlns="http://www.w3.org/2000/svg" xmlns:xlink="http://www.w3.org/1999/xlink" x="0px" y="0px"
	 viewBox="0 0 58 48" style="enable-background:new 0 0 58 48;" xml:space="preserve">
<style type="text/css">
	.st0{opacity:0.5;fill:#0FC645;}
	.st1{fill:#0FC645;}
</style>
<g>
	<g transform="translate(3)">
		<path class="st0" d="M45.6,29.7l-1.2-6.3l-1.1-6c-0.3-1.8-1.9-3-3.7-3h-4.9c-0.9,0-1.6,0.7-1.6,1.6c0,0.9,0.7,1.6,1.6,1.6h4.9
			c0.3,0,0.5,0.2,0.5,0.4l1,5.4l-4.5,7l-9.4,0.2c0,0,0,0,0,0c-0.2,0-0.3-0.1-0.4-0.2c-0.1-0.1-0.2-0.2-0.2-0.4v-6.3
			c0-0.9-0.7-1.6-1.6-1.6h-9c-2.5,0.1-4.4,0.3-5.9,0.7s-2.9,1.2-4.3,2.4c-1.9,1.7-3.4,3.9-4.1,6.4l-1.8,6.4c-0.1,0.5,0,1,0.3,1.4
			c0.3,0.4,0.8,0.6,1.3,0.6h4.2c0.8,4.1,4.4,7.3,8.7,7.3c4.4,0,8.1-3.2,8.8-7.4l13.5-0.2c0.6,4.3,4.3,7.6,8.8,7.6
			c4.9,0,8.9-4,8.9-8.9C54.5,33.7,50.5,29.7,45.6,29.7z M12.9,22.1H3.2H12.9z M4.9,32.6c1.2-4.3,5.2-7.5,9.7-7.5h8.9v5
			c0,1,0.4,2,1.1,2.7c0.7,0.7,1.7,1.1,2.7,1.1l10.2-0.2c0.5,0,1-0.3,1.3-0.7l3.2-4.9l1.7,8.6L3.7,37L4.9,32.6z M14.6,44.3
			c-2.6,0-4.8-1.7-5.5-4.1h5.5h0l5.5-0.1C19.4,42.5,17.2,44.3,14.6,44.3z M45.6,44.3c-2.7,0-5-1.9-5.6-4.5l5.6-0.1
			c0.5,0,0.9-0.2,1.2-0.6s0.4-0.8,0.3-1.3l-0.9-4.9c2.8,0.3,5.1,2.7,5.1,5.7C51.3,41.7,48.7,44.3,45.6,44.3z"/>
		<path class="st1" d="M1.6,3.2h4.9c0.9,0,1.6-0.7,1.6-1.6S7.4,0,6.5,0H1.6C0.7,0,0,0.7,0,1.6S0.7,3.2,1.6,3.2z"/>
	</g>
	<path class="st1" d="M16.5,5.6h-13C1.6,5.6,0,7.2,0,9.1v7.4C0,18.4,1.6,20,3.5,20h13c1.9,0,3.5-1.6,3.5-3.5V9.1
		C20,7.2,18.4,5.6,16.5,5.6z M3.5,8.6h13c0.3,0,0.5,0.2,0.5,0.5v7.4c0,0.3-0.2,0.5-0.5,0.5h-13C3.2,17,3,16.8,3,16.5V9.1
		C3,8.8,3.2,8.6,3.5,8.6z"/>
</g>
</svg>
