<?xml version="1.0" encoding="utf-8"?>
<!-- Generator: Adobe Illustrator 24.3.0, SVG Export Plug-In . SVG Version: 6.00 Build 0)  -->
<svg version="1.1" id="Layer_1" xmlns="http://www.w3.org/2000/svg" xmlns:xlink="http://www.w3.org/1999/xlink" x="0px" y="0px"
	 viewBox="0 0 52 46" style="enable-background:new 0 0 52 46;" xml:space="preserve">
<style type="text/css">
	.st0{opacity:0.5;fill:#0FC645;}
	.st1{fill:#0FC645;}
</style>
<g>
	<path class="st0" d="M44.4,25h-5.1c-0.7,0-1.4,0.1-2,0.3c-1.3-2.5-3.8-4.2-6.8-4.2h-9c-3,0-5.5,1.7-6.8,4.2c-0.6-0.2-1.3-0.3-2-0.3
		H7.6C3.4,25,0,28.5,0,32.7v8.1c0,2.5,2.1,4.6,4.6,4.6h42.9c2.5,0,4.6-2.1,4.6-4.6v-8.1C52,28.5,48.6,25,44.4,25z M13.9,28.7v13.6
		H4.6c-0.8,0-1.5-0.7-1.5-1.5v-8.1c0-2.5,2.1-4.6,4.6-4.6h5.1c0.4,0,0.8,0.1,1.2,0.2C13.9,28.4,13.9,28.6,13.9,28.7z M35.1,42.3
		H16.9V28.7c0-2.5,2.1-4.6,4.6-4.6h9c2.5,0,4.6,2.1,4.6,4.6V42.3z M49,40.8c0,0.8-0.7,1.5-1.5,1.5h-9.3V28.7c0-0.2,0-0.3,0-0.5
		c0.4-0.1,0.8-0.2,1.2-0.2h5.1c2.5,0,4.6,2.1,4.6,4.6V40.8z"/>
	<path class="st1" d="M10.2,8.5c-3.7,0-6.8,3-6.8,6.8s3,6.8,6.8,6.8c3.7,0,6.8-3,6.8-6.8S13.9,8.5,10.2,8.5z M10.2,19
		c-2.1,0-3.7-1.7-3.7-3.7s1.7-3.7,3.7-3.7s3.7,1.7,3.7,3.7S12.2,19,10.2,19z M26,0.1c-5,0-9,4.1-9,9s4.1,9,9,9s9-4.1,9-9
		C35,4.1,31,0.1,26,0.1z M26,15.1c-3.3,0-6-2.7-6-6c0-3.3,2.7-6,6-6s6,2.7,6,6S29.3,15.1,26,15.1z M41.8,8.5c-3.7,0-6.8,3-6.8,6.8
		s3,6.8,6.8,6.8c3.7,0,6.8-3,6.8-6.8S45.6,8.5,41.8,8.5z M41.8,19c-2.1,0-3.7-1.7-3.7-3.7c0-2.1,1.7-3.7,3.7-3.7
		c2.1,0,3.7,1.7,3.7,3.7S43.9,19,41.8,19z"/>
</g>
</svg>
