<?xml version="1.0" encoding="UTF-8" standalone="no"?>
<!DOCTYPE svg PUBLIC "-//W3C//DTD SVG 1.1//EN" "http://www.w3.org/Graphics/SVG/1.1/DTD/svg11.dtd">
<svg width="100%" height="100%" viewBox="0 0 356 441" version="1.1" xmlns="http://www.w3.org/2000/svg" xmlns:xlink="http://www.w3.org/1999/xlink" xml:space="preserve" xmlns:serif="http://www.serif.com/" style="fill-rule:evenodd;clip-rule:evenodd;stroke-linejoin:round;stroke-miterlimit:2;">
    <g>
        <path d="M114.75,348.55C102.48,342.44 91.05,334.68 80.77,325.46L80.6,325.31L80.6,270.79L81.53,272.33C90.06,286.48 101.73,298.95 115.26,308.4L115.47,308.55L115.47,348.91L114.75,348.55Z" style="fill:rgb(6,177,96);fill-rule:nonzero;"/>
        <path d="M29.79,381.15L29.79,214.06C29.79,128.73 98.1,59.02 182.06,58.66L182.72,58.66C225.15,58.66 264.63,75.71 293.86,106.66C323.06,137.58 337.81,178 335.39,220.5C333.35,256.17 318.6,290.26 293.84,316.51C269.07,342.77 235.89,359.46 200.41,363.51C194.54,364.18 188.59,364.52 182.72,364.52C171.27,364.52 159.84,363.24 148.74,360.71L148.35,360.62L148.35,324.53L148.99,324.72C159.91,327.99 171.26,329.65 182.72,329.65C185.8,329.65 188.93,329.53 192.02,329.29C249.42,324.84 296.03,278.22 300.42,220.85C302.97,187.59 291.92,155.84 269.32,131.44C247.01,107.36 215.45,93.55 182.73,93.55C182.31,93.55 181.87,93.55 181.45,93.56C117.06,94.25 64.68,148.23 64.68,213.91L64.68,346.78C64.68,365.73 49.26,381.15 30.31,381.15L29.79,381.15Z" style="fill:rgb(6,177,96);fill-rule:nonzero;"/>
    </g>
    <path d="M148.73,360.69C137.02,358.04 125.59,353.95 114.75,348.55L114.47,348.41L114.47,307.85L115.26,308.4C125.65,315.66 137,321.14 148.99,324.7L149.35,324.81L149.35,360.83L148.73,360.69Z" style="fill:url(#_Linear1);fill-rule:nonzero;"/>
    <path d="M148.84,325.18L148.84,360.2C136.97,357.51 125.62,353.41 114.97,348.1L114.97,308.81C125.21,315.96 136.61,321.55 148.84,325.18Z" style="fill:url(#_Linear2);fill-rule:nonzero;"/>
    <path d="M148.67,307.85C136.12,303.41 124.67,296.61 114.63,287.63L114.46,287.48L114.46,211.57L115.46,211.57C115.46,235.45 128.34,257.76 149.08,269.77L149.33,269.91L149.33,308.07L148.67,307.85Z" style="fill:url(#_Linear3);fill-rule:nonzero;"/>
    <path d="M80.6,381.5L80.6,213.68C80.6,186.85 90.67,161.3 108.95,141.72C127.37,122 152.13,110.57 178.68,109.54C180.04,109.49 181.36,109.46 182.72,109.46C210.84,109.46 238.01,121.27 257.28,141.87C276.81,162.74 286.51,189.97 284.6,218.55C282.93,243.5 272.01,266.98 253.82,284.66C235.64,302.34 211.87,312.62 186.88,313.61C185.5,313.66 184.1,313.69 182.72,313.69C170.99,313.69 159.54,311.72 148.68,307.85L148.35,307.73L148.35,269.34L149.1,269.78C159.28,275.69 170.9,278.82 182.72,278.82C185.67,278.82 188.67,278.63 191.63,278.24C221.73,274.35 245.48,250.61 249.38,220.51C251.88,201.18 246,181.76 233.23,167.24C220.44,152.68 202.02,144.33 182.71,144.33C180.89,144.33 179.04,144.4 177.21,144.55C142.59,147.32 115.47,177.38 115.47,212.99L115.47,347.12C115.47,366.07 100.05,381.49 81.1,381.49L80.6,381.49L80.6,381.5Z" style="fill:rgb(6,177,96);fill-rule:nonzero;"/>
    <path d="M182.71,262.89C154.42,262.89 131.4,239.87 131.4,211.58C131.4,183.29 154.42,160.27 182.71,160.27C211,160.27 234.02,183.29 234.02,211.58C234.02,239.87 211,262.89 182.71,262.89ZM182.71,195.14C173.65,195.14 166.27,202.51 166.27,211.58C166.27,220.65 173.64,228.02 182.71,228.02C191.77,228.02 199.15,220.65 199.15,211.58C199.15,202.51 191.78,195.14 182.71,195.14Z" style="fill:rgb(6,177,96);fill-rule:nonzero;"/>
    <defs>
        <linearGradient id="_Linear1" x1="0" y1="0" x2="1" y2="0" gradientUnits="userSpaceOnUse" gradientTransform="matrix(34.8721,0,0,34.8721,114.469,334.341)"><stop offset="0" style="stop-color:rgb(77,77,77);stop-opacity:1"/><stop offset="1" style="stop-color:rgb(6,177,96);stop-opacity:1"/></linearGradient>
        <linearGradient id="_Linear2" x1="0" y1="0" x2="1" y2="0" gradientUnits="userSpaceOnUse" gradientTransform="matrix(33.8722,0,0,33.8722,114.969,334.508)"><stop offset="0" style="stop-color:rgb(77,77,77);stop-opacity:1"/><stop offset="1" style="stop-color:rgb(6,177,96);stop-opacity:1"/></linearGradient>
        <linearGradient id="_Linear3" x1="0" y1="0" x2="1" y2="0" gradientUnits="userSpaceOnUse" gradientTransform="matrix(34.8721,0,0,34.8721,114.469,259.834)"><stop offset="0" style="stop-color:rgb(77,77,77);stop-opacity:1"/><stop offset="1" style="stop-color:rgb(6,177,96);stop-opacity:1"/></linearGradient>
    </defs>
</svg>
